<svg width="191" height="84" viewBox="0 0 191 84" fill="none" xmlns="http://www.w3.org/2000/svg">
<path d="M28.2442 63.5061C28.2442 63.2393 28.3952 63.0813 28.6971 63.0321C28.9991 62.976 29.8207 62.9479 31.162 62.9479C32.5033 62.9479 33.1739 63.1024 33.1739 63.4113C33.1739 63.5237 33.1037 63.6957 32.9632 63.9275C32.8228 64.1522 32.7525 64.4155 32.7525 64.7175C32.7525 65.0124 32.8789 65.5532 33.1318 66.3397C34.1781 69.591 34.9119 71.7434 35.3333 72.7967C35.7616 73.8501 36.0074 74.3768 36.0706 74.3768C36.204 74.3768 36.4288 74.0011 36.7448 73.2497C37.7209 70.9253 38.4933 68.7343 39.0621 66.6767C39.2939 65.8411 39.4097 65.2828 39.4097 65.0019C39.4097 64.714 39.3641 64.4823 39.2728 64.3067C39.1815 64.1241 39.0762 63.9415 38.9568 63.759C38.8374 63.5764 38.7777 63.4465 38.7777 63.3692C38.7777 63.0672 39.3536 62.9163 40.5052 62.9163H41.232C42.3205 62.9163 42.8647 63.0602 42.8647 63.3481C42.8647 63.5939 42.64 63.8608 42.1906 64.1487C41.7412 64.4366 41.4427 64.714 41.2952 64.9808C41.1548 65.2477 40.4631 67.0243 39.2201 70.3108C37.9772 73.5903 37.1731 75.6373 36.808 76.4519C36.4498 77.2665 36.0285 77.6738 35.5439 77.6738C35.0664 77.6738 34.631 77.2559 34.2378 76.4203C34.2237 76.3992 33.5145 74.5312 32.11 70.8164C30.7055 67.0946 29.9225 65.1037 29.761 64.8439C29.5995 64.5771 29.3888 64.3629 29.129 64.2014C28.5391 63.8432 28.2442 63.6115 28.2442 63.5061ZM48.7993 64.0434C48.7993 64.3523 48.6659 64.6403 48.3991 64.9071C48.1392 65.1669 47.8794 65.2968 47.6196 65.2968C47.5634 65.3109 47.5178 65.3179 47.4826 65.3179L47.2509 65.339C46.8998 65.339 46.5838 65.2231 46.3029 64.9914C46.029 64.7596 45.8921 64.4612 45.8921 64.096V63.9064C45.8921 63.5413 46.036 63.2358 46.324 62.99C46.6189 62.7372 46.956 62.6108 47.3352 62.6108H47.3878L47.746 62.6529C47.9637 62.6529 48.1884 62.7723 48.4201 63.0111C48.6589 63.2428 48.7783 63.4781 48.7783 63.7168L48.7993 63.8116V64.0434ZM45.4497 68.7413C45.0845 68.5658 44.9019 68.4007 44.9019 68.2462C44.9019 68.0917 44.9757 67.9689 45.1231 67.8776C45.6358 67.5686 46.4468 67.4141 47.5564 67.4141H47.8619C48.2411 67.4141 48.4552 67.5896 48.5044 67.9408C48.5325 68.1304 48.5465 69.4084 48.5465 71.775C48.5465 74.1345 48.5957 75.4898 48.694 75.8409C48.7923 76.185 49.0276 76.4519 49.3998 76.6415C49.7719 76.8241 49.958 77.0101 49.958 77.1997C49.958 77.4666 49.0873 77.6 47.3457 77.6L47.0297 77.6106H45.7446C45.232 77.6106 44.9757 77.4842 44.9757 77.2313C44.9757 77.0207 45.1302 76.817 45.4391 76.6204C45.7551 76.4238 45.9728 76.2061 46.0922 75.9673C46.2256 75.7075 46.2924 75.1001 46.2924 74.145L46.3029 73.8079V73.4814L46.3134 72.9863V72.6598L46.324 72.3333C46.324 70.669 46.2678 69.6999 46.1554 69.426C46.0501 69.1451 45.8148 68.9169 45.4497 68.7413ZM59.7268 70.3529C59.7268 69.7841 59.5443 69.3312 59.1791 68.9941C58.8139 68.65 58.3294 68.478 57.7255 68.478H57.5253C57.2093 68.478 56.8722 68.5728 56.5141 68.7624C56.156 68.952 55.861 69.2259 55.6293 69.584C55.1658 70.3003 54.9341 71.1886 54.9341 72.249V72.8705C54.9341 73.9238 55.1693 74.7946 55.6398 75.4828C56.1173 76.171 56.6967 76.5151 57.3779 76.5151H57.6833C58.2802 76.5151 58.7683 76.3114 59.1475 75.9041C59.5267 75.4968 59.7163 74.9772 59.7163 74.3452L59.7374 74.124V73.9027L59.7584 73.355C59.7584 73.0179 59.7584 72.6809 59.7584 72.3438L59.769 72.0067V71.6802L59.7584 71.5643V71.006L59.7479 70.9007V70.6795C59.7339 70.539 59.7268 70.4302 59.7268 70.3529ZM59.7795 67.372C59.8427 67.2175 59.8743 66.754 59.8743 65.9815C59.8743 65.2091 59.8146 64.6438 59.6952 64.2856C59.5759 63.9205 59.3652 63.622 59.0632 63.3903C58.7683 63.1515 58.6208 62.9724 58.6208 62.8531C58.6208 62.7337 58.7016 62.6284 58.8631 62.5371C59.2985 62.2843 60.0077 62.1579 60.9909 62.1579H61.2437C61.7352 62.1579 62.0161 62.4212 62.0863 62.9479C62.1074 63.1094 62.1179 65.1178 62.1179 68.9731C62.1179 72.8213 62.146 74.935 62.2022 75.3142C62.2584 75.6864 62.3918 75.9779 62.6025 76.1885C62.6446 76.2307 62.778 76.3395 63.0028 76.5151C63.2345 76.6836 63.3504 76.8346 63.3504 76.968C63.3504 77.0944 63.2521 77.2103 63.0554 77.3156C62.6552 77.5333 62.0021 77.6422 61.0962 77.6422C60.7802 77.6422 60.5274 77.5474 60.3378 77.3577C59.9656 76.9856 59.7619 76.7995 59.7268 76.7995C59.6987 76.7995 59.5407 76.8802 59.2528 77.0417C58.9649 77.2033 58.6173 77.3683 58.21 77.5368C57.8097 77.6983 57.3111 77.7791 56.7142 77.7791C56.1173 77.7791 55.5661 77.6492 55.0605 77.3894C54.1265 76.9118 53.4699 76.1218 53.0907 75.0193C52.866 74.3592 52.7536 73.6359 52.7536 72.8494C52.7536 71.2623 53.2066 69.9702 54.1125 68.9731C55.0254 67.9759 56.2824 67.4773 57.8835 67.4773L59.2634 67.6037C59.5443 67.6037 59.7163 67.5264 59.7795 67.372ZM72.9928 70.7216V70.3951C72.9928 69.8754 72.8067 69.4084 72.4345 68.9941C72.0623 68.5728 71.6059 68.3621 71.0651 68.3621H70.865C70.7667 68.3762 70.7 68.3832 70.6649 68.3832C70.1733 68.3832 69.7063 68.6641 69.2639 69.2259C68.8285 69.7876 68.6108 70.3881 68.6108 71.0271V71.164C68.6108 71.3887 68.7442 71.5011 69.0111 71.5011C69.1164 71.5222 69.1726 71.5327 69.1796 71.5327L69.4219 71.5432H69.4851L69.5588 71.5327L71.5918 71.4168L71.971 71.3747C72.6522 71.3747 72.9928 71.157 72.9928 70.7216ZM68.6108 73.513C68.6108 74.3136 68.9128 74.9842 69.5167 75.5249C70.1206 76.0656 70.8861 76.336 71.813 76.336C72.1852 76.336 72.5223 76.2833 72.8242 76.178C73.1332 76.0656 73.4668 75.9322 73.8249 75.7777C74.1901 75.6232 74.4183 75.546 74.5096 75.546C74.7905 75.546 74.9309 75.697 74.9309 75.9989C74.9309 76.4062 74.4113 76.8416 73.372 77.3051C72.6978 77.607 71.9745 77.758 71.2021 77.758H70.9703C69.6501 77.758 68.5546 77.3577 67.6839 76.5572C67.2134 76.1218 66.8482 75.567 66.5884 74.8929C66.3286 74.2117 66.1986 73.4814 66.1986 72.7019L66.2092 72.4597V72.2174C66.2092 71.5432 66.3637 70.8796 66.6727 70.2265C66.9887 69.5735 67.3644 69.0363 67.7997 68.6149C68.7197 67.7301 69.8116 67.2842 71.0757 67.2772C72.9858 67.2772 74.2568 68.0215 74.8888 69.5103C75.0854 69.9808 75.1838 70.4126 75.1838 70.8059V71.0166C75.1838 71.5011 74.9836 71.8276 74.5833 71.9962C74.1831 72.1577 73.2386 72.2911 71.7498 72.3965C70.2611 72.5018 69.4535 72.572 69.3271 72.6071C68.8496 72.7265 68.6108 73.0285 68.6108 73.513ZM80.4758 72.1436V72.5334C80.4758 73.7272 80.7075 74.7173 81.171 75.5038C81.3887 75.876 81.6661 76.171 82.0032 76.3887C82.3402 76.6064 82.6808 76.7152 83.0249 76.7152H83.2356C83.8746 76.7152 84.4259 76.4062 84.8894 75.7883C85.3599 75.1633 85.5951 74.2784 85.5951 73.1338V72.3859C85.5951 71.2553 85.3599 70.2968 84.8894 69.5103C84.4259 68.7167 83.836 68.32 83.1197 68.32H82.7932C82.1471 68.32 81.5994 68.6676 81.1499 69.3628C80.7005 70.058 80.4758 70.985 80.4758 72.1436ZM88.1337 72.1858V72.7125C88.1337 73.2672 88.0213 73.8747 87.7966 74.5348C87.3261 75.9111 86.3886 76.8732 84.9842 77.421C84.3732 77.6597 83.7833 77.7791 83.2145 77.7791H82.8669C81.5256 77.7791 80.4056 77.3297 79.5067 76.4308C79.0994 76.0235 78.7694 75.4863 78.5166 74.8192C78.2638 74.152 78.1374 73.4428 78.1374 72.6914V72.5123C78.1374 71.8312 78.2567 71.143 78.4955 70.4477C78.959 69.0924 79.8684 68.1514 81.2237 67.6248C81.8346 67.386 82.421 67.2666 82.9828 67.2666H83.5095C84.1345 67.2666 84.7489 67.4071 85.3528 67.688C86.4975 68.2217 87.2945 69.0714 87.7439 70.2371C88.0038 70.9253 88.1337 71.5748 88.1337 72.1858ZM104.817 62.7899H105.175C105.666 62.7899 106.232 62.8531 106.871 62.9795C107.51 63.0988 108.012 63.1691 108.377 63.1901C108.742 63.2112 109.03 63.2814 109.241 63.4008C109.648 63.6325 109.852 64.233 109.852 65.202C109.852 66.1711 109.669 66.6557 109.304 66.6557C109.185 66.6557 108.89 66.3888 108.419 65.8551C107.949 65.3144 107.499 64.9282 107.071 64.6964C106.312 64.2891 105.463 64.0855 104.522 64.0855C103.981 64.0855 103.437 64.233 102.889 64.5279C101.239 65.4057 100.414 67.3158 100.414 70.2581C100.421 72.084 100.846 73.5587 101.688 74.6822C102.531 75.8058 103.704 76.3676 105.206 76.3676C106.492 76.3676 107.58 75.9427 108.472 75.093C109.027 74.5664 109.381 74.303 109.536 74.303C109.831 74.303 109.978 74.5172 109.978 74.9456C109.978 75.1633 109.841 75.5038 109.567 75.9673C109.293 76.4308 108.988 76.7573 108.651 76.9469C107.703 77.4736 106.47 77.737 104.954 77.737H104.585C103.735 77.737 102.875 77.5825 102.004 77.2735C100.242 76.6485 99.0057 75.4126 98.2964 73.5657C97.9313 72.6036 97.7487 71.5538 97.7487 70.4161C97.7487 69.2715 97.9313 68.2217 98.2964 67.2666C99.0338 65.3284 100.284 64.0118 102.046 63.3165C102.938 62.9654 103.862 62.7899 104.817 62.7899ZM113.206 76.9891C113.206 76.8627 113.357 76.6344 113.659 76.3044C113.961 75.9673 114.147 75.6302 114.217 75.2932C114.294 74.9561 114.333 73.1794 114.333 69.9632C114.333 66.747 114.259 64.7983 114.111 64.1171C114.041 63.787 113.894 63.5448 113.669 63.3903C113.262 63.1024 113.058 62.9479 113.058 62.9268C113.058 62.667 113.195 62.4844 113.469 62.3791C113.989 62.1754 114.596 62.0736 115.291 62.0736H115.639C115.962 62.0736 116.19 62.2035 116.324 62.4633C116.464 62.7232 116.534 63.2955 116.534 64.1803L116.524 64.57C116.517 64.8299 116.513 65.0897 116.513 65.3495L116.492 66.129C116.492 66.3888 116.492 66.6487 116.492 66.9085C116.492 67.8284 116.654 68.2884 116.977 68.2884C117.012 68.2813 117.191 68.2076 117.514 68.0672C118.49 67.6318 119.308 67.4141 119.968 67.4141C121.204 67.4141 122.071 67.9092 122.57 68.8993C122.9 69.5735 123.065 71.2307 123.065 73.8711C123.065 74.8894 123.1 75.5249 123.17 75.7777C123.248 76.0235 123.448 76.2798 123.771 76.5467C124.101 76.8135 124.266 76.9821 124.266 77.0523C124.266 77.27 124.122 77.4174 123.834 77.4947C123.553 77.5719 122.83 77.6106 121.664 77.6106H121.295C120.53 77.6106 120.147 77.4561 120.147 77.1471C120.147 77.0769 120.239 76.9013 120.421 76.6204C120.604 76.3325 120.723 76.0095 120.779 75.6513C120.835 75.2932 120.863 74.3557 120.863 72.8389C120.863 71.322 120.793 70.367 120.653 69.9737C120.168 69.3417 119.631 68.9555 119.041 68.815C118.234 68.815 117.588 69.103 117.103 69.6788C116.745 70.1001 116.566 71.0622 116.566 72.565C116.566 74.0608 116.601 75.0158 116.671 75.4301C116.741 75.8374 116.892 76.2096 117.124 76.5467C117.363 76.8767 117.482 77.0804 117.482 77.1576C117.482 77.4104 116.769 77.5368 115.344 77.5368C113.918 77.5368 113.206 77.3542 113.206 76.9891ZM132.655 72.6914H132.476C131.556 72.6914 130.787 72.8986 130.169 73.3129C129.558 73.7202 129.252 74.2293 129.252 74.8402V75.0509C129.252 75.409 129.361 75.7321 129.579 76.02C129.804 76.3009 130.092 76.4413 130.443 76.4413L130.569 76.4624H130.885C131.615 76.4624 132.212 76.1639 132.676 75.567C132.879 75.3072 132.981 74.7735 132.981 73.9659C132.981 73.9027 132.981 73.8395 132.981 73.7763L132.992 73.5235V73.2707C132.992 72.8845 132.879 72.6914 132.655 72.6914ZM127.535 69.2891C127.535 68.7694 127.946 68.3059 128.768 67.8986C129.597 67.4843 130.453 67.2772 131.338 67.2772C131.366 67.2772 131.394 67.2772 131.422 67.2772C132.265 67.2772 132.939 67.379 133.445 67.5826C134.47 67.9899 135.056 68.8537 135.204 70.1739C135.218 70.3073 135.225 71.1921 135.225 72.8283C135.225 74.4575 135.267 75.4126 135.351 75.6935C135.443 75.9743 135.681 76.1815 136.068 76.3149C136.461 76.4484 136.657 76.5748 136.657 76.6941C136.657 76.9469 136.531 77.1401 136.278 77.2735C135.773 77.5403 135.274 77.6738 134.783 77.6738C134.298 77.6738 133.936 77.5614 133.698 77.3367C133.269 76.9364 133.041 76.7363 133.013 76.7363C132.985 76.7363 132.588 76.9153 131.823 77.2735C131.057 77.6246 130.387 77.8002 129.811 77.8002C128.947 77.8002 128.269 77.5614 127.778 77.0839C127.286 76.6064 127.04 76.027 127.04 75.3458V75.0825C127.04 74.3522 127.356 73.7096 127.988 73.1549C128.62 72.6001 129.758 72.1682 131.401 71.8592C131.998 71.7469 132.374 71.6415 132.528 71.5432C132.837 71.3466 132.992 70.9463 132.992 70.3424C132.992 69.7385 132.83 69.275 132.507 68.952C132.184 68.629 131.752 68.4674 131.212 68.4674C130.671 68.4674 130.148 68.7834 129.642 69.4155C129.144 70.0405 128.687 70.3529 128.273 70.3529C127.781 70.3529 127.535 69.9983 127.535 69.2891ZM143.898 76.178L145.499 75.9357C145.682 75.9357 145.773 76.0797 145.773 76.3676C145.773 76.6485 145.503 76.9399 144.962 77.2419C144.421 77.5438 143.853 77.6948 143.256 77.6948H143.045C142.575 77.6948 142.15 77.5719 141.77 77.3261C141.391 77.0804 141.114 76.7784 140.938 76.4203C140.636 75.7953 140.485 74.612 140.485 72.8705C140.485 71.1219 140.422 70.0299 140.296 69.5945C140.176 69.1591 140.018 68.8607 139.822 68.6992C139.457 68.4042 139.274 68.2427 139.274 68.2146C139.274 68.0321 139.369 67.8776 139.558 67.7512C140.043 67.4281 140.306 67.2456 140.348 67.2034C140.398 67.1543 140.668 66.5784 141.16 65.4759C141.405 64.9282 141.683 64.6543 141.992 64.6543C142.308 64.6543 142.518 64.7667 142.624 64.9914C142.652 65.0476 142.711 65.353 142.803 65.9078C142.901 66.4626 143.038 66.8207 143.214 66.9822C143.389 67.1367 143.779 67.2877 144.383 67.4352C144.987 67.5756 145.289 67.7793 145.289 68.0461C145.289 68.313 144.955 68.5131 144.288 68.6465C143.621 68.7799 143.217 68.952 143.077 69.1627C142.831 69.5208 142.708 70.532 142.708 72.1963C142.708 73.8606 142.785 74.9105 142.94 75.3458C143.136 75.9006 143.456 76.178 143.898 76.178ZM152.94 76.178L154.541 75.9357C154.724 75.9357 154.815 76.0797 154.815 76.3676C154.815 76.6485 154.545 76.9399 154.004 77.2419C153.463 77.5438 152.895 77.6948 152.298 77.6948H152.087C151.617 77.6948 151.192 77.5719 150.812 77.3261C150.433 77.0804 150.156 76.7784 149.98 76.4203C149.678 75.7953 149.527 74.612 149.527 72.8705C149.527 71.1219 149.464 70.0299 149.338 69.5945C149.218 69.1591 149.06 68.8607 148.864 68.6992C148.499 68.4042 148.316 68.2427 148.316 68.2146C148.316 68.0321 148.411 67.8776 148.6 67.7512C149.085 67.4281 149.348 67.2456 149.39 67.2034C149.44 67.1543 149.71 66.5784 150.202 65.4759C150.447 64.9282 150.725 64.6543 151.034 64.6543C151.35 64.6543 151.56 64.7667 151.666 64.9914C151.694 65.0476 151.753 65.353 151.845 65.9078C151.943 66.4626 152.08 66.8207 152.256 66.9822C152.431 67.1367 152.821 67.2877 153.425 67.4352C154.029 67.5756 154.331 67.7793 154.331 68.0461C154.331 68.313 153.997 68.5131 153.33 68.6465C152.663 68.7799 152.259 68.952 152.119 69.1627C151.873 69.5208 151.75 70.532 151.75 72.1963C151.75 73.8606 151.827 74.9105 151.982 75.3458C152.178 75.9006 152.498 76.178 152.94 76.178ZM161.34 64.0434C161.34 64.3523 161.206 64.6403 160.939 64.9071C160.68 65.1669 160.42 65.2968 160.16 65.2968C160.104 65.3109 160.058 65.3179 160.023 65.3179L159.791 65.339C159.44 65.339 159.124 65.2231 158.843 64.9914C158.569 64.7596 158.432 64.4612 158.432 64.096V63.9064C158.432 63.5413 158.576 63.2358 158.864 62.99C159.159 62.7372 159.496 62.6108 159.876 62.6108H159.928L160.286 62.6529C160.504 62.6529 160.729 62.7723 160.96 63.0111C161.199 63.2428 161.319 63.4781 161.319 63.7168L161.34 63.8116V64.0434ZM157.99 68.7413C157.625 68.5658 157.442 68.4007 157.442 68.2462C157.442 68.0917 157.516 67.9689 157.663 67.8776C158.176 67.5686 158.987 67.4141 160.097 67.4141H160.402C160.781 67.4141 160.996 67.5896 161.045 67.9408C161.073 68.1304 161.087 69.4084 161.087 71.775C161.087 74.1345 161.136 75.4898 161.234 75.8409C161.333 76.185 161.568 76.4519 161.94 76.6415C162.312 76.8241 162.498 77.0101 162.498 77.1997C162.498 77.4666 161.628 77.6 159.886 77.6L159.57 77.6106H158.285C157.772 77.6106 157.516 77.4842 157.516 77.2313C157.516 77.0207 157.67 76.817 157.979 76.6204C158.295 76.4238 158.513 76.2061 158.633 75.9673C158.766 75.7075 158.833 75.1001 158.833 74.145L158.843 73.8079V73.4814L158.854 72.9863V72.6598L158.864 72.3333C158.864 70.669 158.808 69.6999 158.696 69.426C158.59 69.1451 158.355 68.9169 157.99 68.7413ZM166.769 77.4842C165.778 77.4842 165.283 77.3437 165.283 77.0628C165.283 76.8311 165.413 76.6415 165.673 76.494C166.144 76.2271 166.418 75.9884 166.495 75.7777C166.572 75.56 166.611 74.5453 166.611 72.7335C166.611 70.9147 166.554 69.8508 166.442 69.5419C166.337 69.2259 166.14 68.966 165.852 68.7624C165.564 68.5587 165.42 68.3937 165.42 68.2673C165.42 68.1409 165.515 68.0215 165.705 67.9092C166.147 67.6493 166.849 67.5194 167.811 67.5194C168.099 67.5194 168.324 67.6177 168.486 67.8144C168.542 67.8846 168.619 68.0391 168.717 68.2778C168.823 68.5096 168.893 68.6254 168.928 68.6254C169.061 68.6184 169.269 68.5236 169.55 68.341C170.519 67.688 171.396 67.3614 172.183 67.3614H172.204H172.541C173.11 67.3614 173.622 67.5019 174.079 67.7828C174.535 68.0637 174.886 68.485 175.132 69.0468C175.385 69.6086 175.511 70.834 175.511 72.723C175.511 74.605 175.55 75.6583 175.627 75.8831C175.712 76.1007 175.94 76.3044 176.312 76.494C176.691 76.6836 176.881 76.8697 176.881 77.0523C176.881 77.3683 175.884 77.5263 173.889 77.5263H173.573C172.941 77.5263 172.625 77.3753 172.625 77.0733C172.625 77.0101 172.703 76.8592 172.857 76.6204C173.012 76.3746 173.117 76.1043 173.173 75.8093C173.229 75.5144 173.257 74.5453 173.257 72.9021C173.257 71.2518 173.155 70.1914 172.952 69.7209C172.671 69.0749 172.204 68.7518 171.551 68.7518C171.073 68.7518 170.61 68.8642 170.16 69.0889C169.718 69.3066 169.395 69.6191 169.191 70.0264C168.995 70.4267 168.896 71.3923 168.896 72.9231C168.896 74.447 168.939 75.3704 169.023 75.6935C169.107 76.0095 169.209 76.2658 169.328 76.4624L169.718 77.0944C169.718 77.3683 169.167 77.5052 168.064 77.5052L167.422 77.4842H166.769ZM183.89 67.9513H183.616C183.244 67.9513 182.882 68.1655 182.531 68.5938C182.18 69.0222 182.004 69.5208 182.004 70.0896L181.983 70.2581L181.973 70.5215V70.7954L181.983 70.8796C181.983 71.6099 182.141 72.1998 182.457 72.6493C182.773 73.0987 183.244 73.3234 183.869 73.3234H183.943C184.427 73.3234 184.841 73.1338 185.185 72.7546C185.53 72.3754 185.702 71.8733 185.702 71.2483V70.8375C185.681 70.669 185.67 70.532 185.67 70.4267C185.67 69.7596 185.484 69.1802 185.112 68.6886C184.747 68.1971 184.339 67.9513 183.89 67.9513ZM182.952 77.3156C182.461 77.3156 182.043 77.4877 181.699 77.8318C181.355 78.1759 181.183 78.6077 181.183 79.1274V79.2117C181.183 79.8086 181.418 80.2791 181.888 80.6231C182.359 80.9672 183.002 81.1393 183.816 81.1393H184.09C185.073 81.1393 185.863 80.9146 186.46 80.4651C187.057 80.0157 187.355 79.489 187.355 78.8851L187.345 78.8008C187.345 78.4006 187.18 78.0775 186.85 77.8318C186.52 77.593 186.13 77.4736 185.681 77.4736C185.4 77.4385 185.196 77.421 185.07 77.421L184.711 77.3894H184.532L183.9 77.3472L183.469 77.3156H182.952ZM189.431 67.8354C189.431 68.2357 189.178 68.492 188.672 68.6044C188.166 68.7097 187.914 68.9169 187.914 69.2259L187.945 69.4471L187.987 69.6999L188.04 69.9737C188.075 70.2055 188.093 70.532 188.093 70.9534C188.093 71.3747 187.973 71.8101 187.735 72.2595C187.067 73.5025 185.782 74.1836 183.879 74.303C183.268 74.3452 182.879 74.3978 182.71 74.461C182.345 74.6015 182.162 74.8367 182.162 75.1668C182.162 75.4968 182.433 75.7286 182.973 75.862C183.051 75.8831 183.749 75.9498 185.07 76.0621C186.39 76.1675 187.271 76.3325 187.714 76.5572C188.648 77.0207 189.115 77.6913 189.115 78.5691C189.115 79.7208 188.598 80.6583 187.566 81.3816C186.541 82.1049 185.196 82.4665 183.532 82.4665C182.359 82.4665 181.383 82.2418 180.603 81.7924C180.245 81.5887 179.954 81.3219 179.729 80.9918C179.511 80.6688 179.403 80.3317 179.403 79.9806C179.403 79.3556 179.589 78.836 179.961 78.4216C180.558 77.7615 180.856 77.4104 180.856 77.3683C180.856 77.3261 180.726 77.1401 180.466 76.81C180.207 76.48 180.077 76.1359 180.077 75.7777C180.077 75.4196 180.245 75.0333 180.582 74.619C180.926 74.1977 181.098 73.9624 181.098 73.9133C181.098 73.8641 180.888 73.506 180.466 72.8389C180.045 72.1647 179.834 71.5257 179.834 70.9218C179.834 70.3178 179.964 69.7806 180.224 69.3101C180.962 67.9689 182.334 67.2982 184.343 67.2982H184.648L186.112 67.393L186.65 67.4141C186.832 67.4211 187.018 67.4246 187.208 67.4246L188.324 67.3509C189.062 67.3509 189.431 67.5124 189.431 67.8354Z" fill="#262626"/>
<path d="M22.5093 18.1431C22.3229 16.5692 21.567 15.3473 20.2416 14.4776C18.9163 13.6078 17.2906 13.1729 15.3646 13.1729C13.9564 13.1729 12.7242 13.4007 11.6681 13.8563C10.6222 14.3119 9.80424 14.9383 9.21402 15.7356C8.63417 16.5329 8.34424 17.439 8.34424 18.4537C8.34424 19.3028 8.54616 20.0328 8.94998 20.6437C9.36417 21.2443 9.89225 21.7465 10.5342 22.1503C11.1762 22.5438 11.8493 22.8699 12.5534 23.1288C13.2575 23.3773 13.9046 23.5792 14.4949 23.7345L17.7255 24.6043C18.5538 24.8218 19.4754 25.1221 20.4901 25.5052C21.5152 25.8883 22.4938 26.4112 23.4257 27.0739C24.3679 27.7262 25.1445 28.565 25.7554 29.5901C26.3664 30.6152 26.6718 31.8732 26.6718 33.3643C26.6718 35.0832 26.2214 36.6363 25.3206 38.0238C24.4301 39.4114 23.1254 40.5141 21.4065 41.3321C19.698 42.1501 17.6219 42.5591 15.1783 42.5591C12.9002 42.5591 10.9277 42.1916 9.26062 41.4564C7.60389 40.7212 6.29921 39.6961 5.34659 38.3811C4.40433 37.066 3.87107 35.5388 3.74681 33.7992H7.72297C7.82651 35.0003 8.23034 35.9944 8.93445 36.7813C9.64892 37.5579 10.5498 38.1377 11.637 38.5209C12.7346 38.8936 13.915 39.08 15.1783 39.08C16.6486 39.08 17.9688 38.8419 19.1389 38.3655C20.3089 37.8789 21.2357 37.2058 21.9191 36.3464C22.6025 35.4766 22.9442 34.4619 22.9442 33.3022C22.9442 32.246 22.6491 31.3866 22.0589 30.7239C21.4687 30.0612 20.6921 29.5227 19.7291 29.1086C18.7661 28.6944 17.7255 28.332 16.6072 28.0213L12.6932 26.903C10.2081 26.1886 8.2407 25.1687 6.79106 23.8433C5.34142 22.5179 4.6166 20.7835 4.6166 18.6401C4.6166 16.8591 5.09809 15.3059 6.06106 13.9805C7.03439 12.6448 8.33906 11.6094 9.97509 10.8742C11.6215 10.1286 13.4594 9.75588 15.4889 9.75588C17.5391 9.75588 19.3615 10.1235 20.9561 10.8586C22.5507 11.5835 23.814 12.5775 24.7459 13.8408C25.6881 15.104 26.1852 16.5381 26.2369 18.1431H22.5093ZM39.3842 18.1431V21.2495H27.0208V18.1431H39.3842ZM30.6242 12.4274H34.2897V35.166C34.2897 36.2014 34.4399 36.978 34.7402 37.4958C35.0508 38.0031 35.4443 38.3448 35.9206 38.5209C36.4072 38.6865 36.9198 38.7694 37.4582 38.7694C37.8621 38.7694 38.1934 38.7487 38.4523 38.7072C38.7111 38.6555 38.9182 38.6141 39.0735 38.583L39.8191 41.8757C39.5706 41.9689 39.2237 42.0621 38.7784 42.1553C38.3332 42.2589 37.7689 42.3106 37.0855 42.3106C36.05 42.3106 35.0353 42.088 34.0412 41.6428C33.0575 41.1975 32.2395 40.5193 31.5872 39.6081C30.9452 38.6969 30.6242 37.5475 30.6242 36.16V12.4274ZM56.4338 32.246V18.1431H60.0993V42H56.4338V37.9617H56.1853C55.6261 39.1732 54.7564 40.2035 53.5759 41.0526C52.3955 41.8913 50.9045 42.3106 49.1028 42.3106C47.6117 42.3106 46.2863 41.9845 45.1266 41.3321C43.9669 40.6694 43.0557 39.6754 42.393 38.35C41.7303 37.0143 41.399 35.3317 41.399 33.3022V18.1431H45.0645V33.0537C45.0645 34.7932 45.5511 36.1807 46.5245 37.2162C47.5082 38.2516 48.7611 38.7694 50.2832 38.7694C51.1944 38.7694 52.1211 38.5364 53.0634 38.0704C54.016 37.6045 54.8133 36.89 55.4553 35.927C56.1076 34.9641 56.4338 33.7371 56.4338 32.246ZM72.3224 42.497C70.3343 42.497 68.5792 41.9948 67.0571 40.9904C65.535 39.9757 64.3442 38.5468 63.4848 36.7036C62.6254 34.8502 62.1956 32.6602 62.1956 30.1337C62.1956 27.6279 62.6254 25.4534 63.4848 23.6103C64.3442 21.7672 65.5402 20.3434 67.0726 19.339C68.6051 18.3346 70.3757 17.8324 72.3845 17.8324C73.9377 17.8324 75.1647 18.0913 76.0656 18.609C76.9768 19.1164 77.6705 19.6963 78.1469 20.3486C78.6335 20.9906 79.0115 21.5187 79.2807 21.9329H79.5913V10.1908H83.2568V42H79.7156V38.3345H79.2807C79.0115 38.7694 78.6283 39.3182 78.1313 39.9809C77.6343 40.6332 76.925 41.2182 76.0035 41.736C75.0819 42.2433 73.8549 42.497 72.3224 42.497ZM72.8194 39.2043C74.2898 39.2043 75.5323 38.8211 76.5471 38.0549C77.5618 37.2783 78.3332 36.2066 78.8613 34.8398C79.3894 33.4627 79.6534 31.8732 79.6534 30.0715C79.6534 28.2906 79.3946 26.7322 78.8768 25.3965C78.3591 24.0504 77.5929 23.0046 76.5781 22.259C75.5634 21.5031 74.3105 21.1252 72.8194 21.1252C71.2662 21.1252 69.9719 21.5238 68.9365 22.3211C67.9114 23.1081 67.1399 24.1798 66.6222 25.5362C66.1148 26.8823 65.8612 28.3941 65.8612 30.0715C65.8612 31.7697 66.12 33.3125 66.6378 34.7C67.1658 36.0772 67.9424 37.1748 68.9675 37.9928C70.003 38.8004 71.287 39.2043 72.8194 39.2043ZM86.9801 42V18.1431H90.6456V42H86.9801ZM88.8439 14.1669C88.1295 14.1669 87.5134 13.9236 86.9957 13.4369C86.4883 12.9503 86.2346 12.3652 86.2346 11.6818C86.2346 10.9984 86.4883 10.4134 86.9957 9.92673C87.5134 9.44007 88.1295 9.19674 88.8439 9.19674C89.5584 9.19674 90.1693 9.44007 90.6767 9.92673C91.1944 10.4134 91.4533 10.9984 91.4533 11.6818C91.4533 12.3652 91.1944 12.9503 90.6767 13.4369C90.1693 13.9236 89.5584 14.1669 88.8439 14.1669ZM103.552 42.497C101.398 42.497 99.5087 41.9845 97.883 40.9594C96.2677 39.9343 95.0044 38.5002 94.0932 36.657C93.1924 34.8139 92.742 32.6602 92.742 30.1958C92.742 27.7107 93.1924 25.5414 94.0932 23.688C95.0044 21.8345 96.2677 20.3952 97.883 19.3701C99.5087 18.345 101.398 17.8324 103.552 17.8324C105.706 17.8324 107.59 18.345 109.206 19.3701C110.831 20.3952 112.095 21.8345 112.996 23.688C113.907 25.5414 114.362 27.7107 114.362 30.1958C114.362 32.6602 113.907 34.8139 112.996 36.657C112.095 38.5002 110.831 39.9343 109.206 40.9594C107.59 41.9845 105.706 42.497 103.552 42.497ZM103.552 39.2043C105.188 39.2043 106.534 38.7849 107.59 37.9462C108.647 37.1075 109.428 36.0047 109.936 34.6379C110.443 33.2711 110.697 31.7904 110.697 30.1958C110.697 28.6012 110.443 27.1153 109.936 25.7382C109.428 24.361 108.647 23.2479 107.59 22.3988C106.534 21.5497 105.188 21.1252 103.552 21.1252C101.916 21.1252 100.57 21.5497 99.5139 22.3988C98.4577 23.2479 97.6759 24.361 97.1685 25.7382C96.6612 27.1153 96.4075 28.6012 96.4075 30.1958C96.4075 31.7904 96.6612 33.2711 97.1685 34.6379C97.6759 36.0047 98.4577 37.1075 99.5139 37.9462C100.57 38.7849 101.916 39.2043 103.552 39.2043Z" fill="#262626"/>
<path d="M142.74 41.514H135.009L125.206 27.9741C124.48 28.0026 123.889 28.0168 123.434 28.0168C123.249 28.0168 123.049 28.0168 122.836 28.0168C122.622 28.0026 122.401 27.9883 122.174 27.9741V36.3885C122.174 38.2109 122.373 39.3428 122.772 39.7841C123.313 40.4106 124.124 40.7238 125.206 40.7238H126.338V41.514H113.93V40.7238H115.019C116.244 40.7238 117.119 40.3251 117.646 39.5278C117.945 39.0865 118.095 38.04 118.095 36.3885V17.6804C118.095 15.858 117.895 14.7261 117.497 14.2847C116.941 13.6583 116.116 13.345 115.019 13.345H113.93V12.5548H124.48C127.555 12.5548 129.819 12.7826 131.271 13.2382C132.738 13.6796 133.977 14.5054 134.987 15.7156C136.012 16.9115 136.525 18.3424 136.525 20.0082C136.525 21.7879 135.941 23.3327 134.774 24.6425C133.621 25.9524 131.827 26.8778 129.392 27.4188L135.372 35.7264C136.739 37.6343 137.913 38.9014 138.896 39.5278C139.878 40.1543 141.159 40.5529 142.74 40.7238V41.514ZM122.174 26.6286C122.444 26.6286 122.679 26.6358 122.878 26.65C123.078 26.65 123.241 26.65 123.37 26.65C126.132 26.65 128.21 26.052 129.606 24.8561C131.015 23.6601 131.72 22.1367 131.72 20.2858C131.72 18.4777 131.15 17.0112 130.011 15.8864C128.887 14.7474 127.392 14.1779 125.527 14.1779C124.701 14.1779 123.583 14.3132 122.174 14.5837V26.6286ZM165.264 11.8928L166.011 21.0333H165.264C164.509 18.7553 163.534 17.0397 162.338 15.8864C160.615 14.2206 158.401 13.3877 155.696 13.3877C152.009 13.3877 149.204 14.8471 147.282 17.7658C145.673 20.2289 144.869 23.1618 144.869 26.5646C144.869 29.3267 145.402 31.8467 146.47 34.1247C147.538 36.4027 148.933 38.0756 150.656 39.1434C152.393 40.197 154.173 40.7238 155.995 40.7238C157.063 40.7238 158.095 40.5885 159.092 40.318C160.088 40.0475 161.049 39.6489 161.975 39.1221V30.7504C161.975 29.2982 161.861 28.3514 161.633 27.91C161.42 27.4544 161.078 27.1127 160.608 26.8849C160.153 26.6429 159.341 26.5219 158.173 26.5219V25.7103H169.386V26.5219H168.852C167.741 26.5219 166.979 26.892 166.567 27.6324C166.282 28.1592 166.139 29.1985 166.139 30.7504V39.6133C164.502 40.496 162.886 41.1438 161.292 41.5567C159.697 41.9696 157.924 42.176 155.974 42.176C150.378 42.176 146.129 40.3821 143.224 36.7942C141.046 34.1033 139.957 30.9996 139.957 27.4829C139.957 24.9344 140.569 22.4926 141.793 20.1577C143.245 17.3814 145.239 15.2457 147.773 13.7508C149.894 12.5121 152.4 11.8928 155.29 11.8928C156.344 11.8928 157.298 11.9782 158.152 12.1491C159.021 12.3199 160.245 12.6972 161.825 13.281C162.623 13.5799 163.157 13.7294 163.427 13.7294C163.698 13.7294 163.925 13.6084 164.111 13.3664C164.31 13.1101 164.431 12.6189 164.474 11.8928H165.264Z" fill="#7A1122"/>
<path d="M0 49.6674V44.9572H176.549L170.156 37.8078H177.726L189.25 49.6674H0Z" fill="#791526"/>
<path d="M189.418 51.9385V56.6487H12.8691L19.2616 63.7982H11.6916L0.168381 51.9385H189.418Z" fill="#262626"/>
</svg>
